<svg width="160" height="160" viewBox="0 0 160 160" fill="none" xmlns="http://www.w3.org/2000/svg">
<path d="M138.921 137.963C146.079 130.135 151.619 120.957 155.221 110.962C158.824 100.968 160.417 90.3542 159.907 79.7367C159.815 72.5994 159.389 39.6911 133.242 17.5476C116.968 4.65225 96.4053 -1.51187 75.7579 0.315211C61.7169 0.51968 47.9883 4.50947 36.0072 11.8675C5.61388 31.1462 1.01539 66.4481 0.490725 71.0678C-0.163558 76.8594 -3.54608 112.453 23.0882 138.373C31.1691 145.816 40.6555 151.553 50.9848 155.244C61.3141 158.934 72.276 160.504 83.2204 159.859C90.0102 159.667 118.601 158.848 138.915 137.963" fill="#060C21"/>
</svg>
